<svg xmlns="http://www.w3.org/2000/svg" width="612" height="612" style="enable-background:new 0 0 612 612;fill:#f1c40f" xml:space="preserve"><path d="M0 478.113V248.648c0-5.279 4.283-9.562 9.562-9.562h478.093c5.278 0 9.562 4.283 9.562 9.562v229.486c0 5.279-4.283 9.561-9.562 9.561H9.562c-5.279 0-9.562-4.302-9.562-9.582zm19.124-219.902v210.342h458.97V258.211H19.124z"/><path d="M47.829 219.964c-5.279 0-9.562-4.283-9.562-9.562 0-5.279 4.283-9.562 9.562-9.562h478.094c5.279 0 9.563 4.283 9.563 9.562v229.466c0 5.279-4.283 9.562-9.563 9.562-5.259 0-9.562-4.281-9.562-9.562V219.964H47.829z"/><path d="M86.077 181.696c-5.279 0-9.562-4.283-9.562-9.562 0-5.279 4.283-9.562 9.562-9.562h478.094c5.278 0 9.562 4.283 9.562 9.562V401.6c0 5.279-4.283 9.563-9.562 9.563s-9.562-4.283-9.562-9.563V181.696H86.077z"/><path d="M124.344 143.429c-5.279 0-9.562-4.283-9.562-9.562s4.283-9.562 9.562-9.562h478.094c5.278 0 9.562 4.283 9.562 9.562l-.04.976-.06 228.55c0 5.258-4.264 9.521-9.522 9.521s-9.521-4.265-9.521-9.521l.06-219.964H124.344zM86.037 392.078c-7.909 0-15.1-3.229-20.279-8.408-5.159-5.178-8.387-12.369-8.387-20.277 0-7.93 3.208-15.102 8.387-20.301 5.179-5.178 12.351-8.406 20.279-8.406 7.888 0 15.06 3.229 20.259 8.406l.04.041.239.238.1.08c4.98 5.159 8.068 12.172 8.068 19.899a28.604 28.604 0 0 1-8.407 20.279l-.757.735c-5.14 4.765-11.992 7.714-19.542 7.714zm-6.753-21.933a9.583 9.583 0 0 0 6.753 2.81c2.47 0 4.741-.916 6.414-2.41l.339-.379c1.733-1.732 2.829-4.144 2.829-6.771a9.658 9.658 0 0 0-2.749-6.772l-.04-.041c-1.713-1.693-4.124-2.748-6.773-2.748a9.493 9.493 0 0 0-6.753 2.809 9.53 9.53 0 0 0-2.809 6.754 9.562 9.562 0 0 0 2.789 6.748zm331.897 21.912c-7.868 0-15.04-3.227-20.238-8.406l-.021-.02-.021.02a28.638 28.638 0 0 1-8.406-20.278c0-7.89 3.228-15.06 8.406-20.238l.04-.041.238-.238.101-.1c5.159-4.98 12.19-8.068 19.899-8.068 7.89 0 15.061 3.229 20.26 8.406l.04.041.238.238.101.1c4.979 5.16 8.067 12.172 8.067 19.9a28.605 28.605 0 0 1-8.406 20.278l-.758.697c-5.138 4.761-12.01 7.709-19.54 7.709zm-6.793-21.912c1.713 1.713 4.124 2.771 6.773 2.771 2.47 0 4.74-.916 6.414-2.41l.357-.379a9.577 9.577 0 0 0 2.81-6.754 9.663 9.663 0 0 0-2.749-6.771l-.04-.041c-1.713-1.692-4.123-2.748-6.772-2.748a9.585 9.585 0 0 0-6.753 2.748l-.04.041c-1.692 1.713-2.749 4.123-2.749 6.771a9.494 9.494 0 0 0 2.81 6.754l-.061.018z"/><path d="M409.209 248.648c0-5.279 4.282-9.562 9.562-9.562 5.277 0 9.562 4.283 9.562 9.562 0 16.375 6.634 31.216 17.331 41.933 10.737 10.697 25.559 17.331 41.933 17.331 5.279 0 9.563 4.282 9.563 9.562s-4.283 9.563-9.563 9.563c-21.612 0-41.216-8.785-55.397-22.969l-.04-.04c-14.167-14.183-22.951-33.765-22.951-55.38zm-340.383 0c0-5.279 4.283-9.562 9.562-9.562 5.279 0 9.562 4.283 9.562 9.562 0 21.594-8.785 41.176-22.968 55.379l-.04.06c-14.203 14.203-33.785 22.969-55.379 22.969-5.279 0-9.562-4.303-9.562-9.562 0-5.279 4.283-9.562 9.562-9.562 16.395 0 31.215-6.634 41.913-17.332l.04-.04c10.696-10.695 17.31-25.537 17.31-41.912zm359.506 229.465c0 5.279-4.282 9.563-9.562 9.563-5.279 0-9.562-4.303-9.562-9.563 0-21.594 8.784-41.176 22.968-55.379l.04-.039c14.203-14.203 33.806-22.969 55.399-22.969 5.277 0 9.562 4.283 9.562 9.563 0 5.279-4.283 9.561-9.562 9.561-16.396 0-31.216 6.635-41.913 17.332l-.04.039c-10.696 10.697-17.33 25.519-17.33 41.892zm-340.363 0c0 5.279-4.283 9.563-9.562 9.563-5.279 0-9.562-4.303-9.562-9.563 0-16.373-6.614-31.215-17.311-41.911l-.04-.039c-10.697-10.697-25.518-17.332-41.913-17.332-5.279 0-9.562-4.283-9.562-9.562 0-5.279 4.283-9.562 9.562-9.562 21.594 0 41.195 8.766 55.379 22.969l.04.039c14.184 14.223 22.969 33.826 22.969 55.398zm160.64-176.873c-7.251 0-13.825 2.948-18.586 7.709l-.458.418c-4.502 4.701-7.251 11.115-7.251 18.169 0 7.29 2.929 13.862 7.65 18.586l.02.02.02-.02c4.761 4.739 11.335 7.688 18.586 7.688 7.291 0 13.865-2.93 18.586-7.649l.04-.039c4.721-4.724 7.649-11.316 7.649-18.586 0-7.253-2.948-13.826-7.709-18.587l-.418-.459c-4.643-4.481-11.057-7.25-18.129-7.25zm-32.112-5.837c8.227-8.228 19.582-13.307 32.112-13.307 12.211 0 23.347 4.861 31.534 12.749l.598.538c8.227 8.227 13.287 19.582 13.287 32.111 0 12.489-5.08 23.825-13.287 32.071l-.04.041c-8.227 8.228-19.582 13.308-32.072 13.308-12.55 0-23.885-5.08-32.112-13.308l.02-.021c-8.227-8.228-13.327-19.582-13.327-32.093 0-12.211 4.86-23.326 12.729-31.494l.558-.595z"/><path d="M201.955 394.029a62.111 62.111 0 0 0-5.119 6.693l-.418.578a63.61 63.61 0 0 0-4.96 9.283 74.073 74.073 0 0 0 23.367 18.785c10.08 5.18 21.574 8.088 33.785 8.088 12.231 0 23.725-2.931 33.805-8.088a74.443 74.443 0 0 0 23.347-18.767 63.95 63.95 0 0 0-5.358-9.899h-.02a67.168 67.168 0 0 0-5.12-6.693 81.201 81.201 0 0 1-17.968 9.521 81.226 81.226 0 0 1-28.706 5.24 81.11 81.11 0 0 1-28.706-5.24 80.79 80.79 0 0 1-17.929-9.501zm-21.037-3.924c3.825-5.738 8.466-11.037 13.706-15.717 3.526-3.367 9.144-3.527 12.869-.221a62.668 62.668 0 0 0 19.124 11.535c6.753 2.549 14.183 3.963 21.972 3.963s15.199-1.394 21.973-3.963a62.748 62.748 0 0 0 18.964-11.375c3.526-3.308 9.083-3.406 12.789-.14 5.339 4.722 10.061 10.101 13.944 15.916l-.02.021.02.039a81.117 81.117 0 0 1 9.323 18.965l-.021.02c.957 2.83.578 6.037-1.294 8.607-8.605 11.971-20 21.832-33.208 28.604a92.914 92.914 0 0 1-42.491 10.259 92.958 92.958 0 0 1-42.471-10.259c-13.207-6.772-24.602-16.635-33.208-28.604-1.733-2.412-2.331-5.578-1.315-8.586 2.211-6.556 5.219-12.75 8.925-18.388l.419-.676z"/></svg>